<?xml version="1.0" encoding="UTF-8"?>
<svg xmlns="http://www.w3.org/2000/svg" xmlns:xlink="http://www.w3.org/1999/xlink" width="35px" height="35px" viewBox="0 0 35 35" version="1.1">
<g id="surface1">
<path style=" stroke:none;fill-rule:nonzero;fill:rgb(0%,0%,0%);fill-opacity:1;" d="M 17.5 11.484375 C 14.175781 11.484375 11.484375 14.175781 11.484375 17.5 C 11.484375 20.824219 14.175781 23.515625 17.5 23.515625 C 20.824219 23.515625 23.515625 20.824219 23.515625 17.5 C 23.511719 14.179688 20.820312 11.488281 17.5 11.484375 Z M 17.5 22.421875 C 14.78125 22.421875 12.578125 20.21875 12.578125 17.5 C 12.578125 14.78125 14.78125 12.578125 17.5 12.578125 C 20.21875 12.578125 22.421875 14.78125 22.421875 17.5 C 22.417969 20.21875 20.21875 22.417969 17.5 22.421875 Z M 23.515625 4.375 L 11.484375 4.375 C 7.558594 4.378906 4.378906 7.558594 4.375 11.484375 L 4.375 23.515625 C 4.378906 27.441406 7.558594 30.621094 11.484375 30.625 L 23.515625 30.625 C 27.441406 30.621094 30.621094 27.441406 30.625 23.515625 L 30.625 11.484375 C 30.621094 7.558594 27.441406 4.378906 23.515625 4.375 Z M 29.53125 23.515625 C 29.527344 26.835938 26.835938 29.527344 23.515625 29.53125 L 11.484375 29.53125 C 8.164062 29.527344 5.472656 26.835938 5.46875 23.515625 L 5.46875 11.484375 C 5.472656 8.164062 8.164062 5.472656 11.484375 5.46875 L 23.515625 5.46875 C 26.835938 5.472656 29.527344 8.164062 29.53125 11.484375 Z M 25.703125 10.390625 C 25.703125 10.996094 25.214844 11.484375 24.609375 11.484375 C 24.003906 11.484375 23.515625 10.996094 23.515625 10.390625 C 23.515625 9.785156 24.003906 9.296875 24.609375 9.296875 C 25.214844 9.296875 25.703125 9.785156 25.703125 10.390625 Z M 25.703125 10.390625 "/>
</g>
</svg>
