<?xml version="1.0" encoding="UTF-8"?>
<svg xmlns="http://www.w3.org/2000/svg" xmlns:xlink="http://www.w3.org/1999/xlink" width="50px" height="50px" viewBox="0 0 50 50" version="1.1">
<g id="surface1">
<path style=" stroke:none;fill-rule:evenodd;fill:rgb(0%,0%,0%);fill-opacity:1;" d="M 46.875 25.136719 C 46.875 13.054688 37.078125 3.261719 25 3.261719 C 12.921875 3.261719 3.125 13.054688 3.125 25.136719 C 3.125 36.042969 11.117188 45.101562 21.574219 46.738281 L 21.574219 31.460938 L 16.03125 31.460938 L 16.03125 25.136719 L 21.574219 25.136719 L 21.574219 20.3125 C 21.574219 14.828125 24.851562 11.792969 29.835938 11.792969 C 32.242188 11.792969 34.734375 12.230469 34.734375 12.230469 L 34.734375 17.609375 L 31.984375 17.609375 C 29.265625 17.609375 28.410156 19.289062 28.410156 21.035156 L 28.410156 25.136719 L 34.480469 25.136719 L 33.519531 31.460938 L 28.425781 31.460938 L 28.425781 46.738281 C 38.882812 45.101562 46.875 36.058594 46.875 25.136719 Z M 46.875 25.136719 "/>
</g>
</svg>
