<?xml version="1.0" encoding="UTF-8"?>
<svg xmlns="http://www.w3.org/2000/svg" xmlns:xlink="http://www.w3.org/1999/xlink" width="13px" height="13px" viewBox="0 0 13 13" version="1.1">
<g id="surface1">
<path style=" stroke:none;fill-rule:evenodd;fill:rgb(0%,0%,0%);fill-opacity:1;" d="M 12.1875 6.535156 C 12.1875 3.394531 9.640625 0.847656 6.5 0.847656 C 3.359375 0.847656 0.8125 3.394531 0.8125 6.535156 C 0.8125 9.371094 2.890625 11.726562 5.609375 12.152344 L 5.609375 8.179688 L 4.167969 8.179688 L 4.167969 6.535156 L 5.609375 6.535156 L 5.609375 5.28125 C 5.609375 3.855469 6.460938 3.066406 7.757812 3.066406 C 8.382812 3.066406 9.03125 3.179688 9.03125 3.179688 L 9.03125 4.578125 L 8.316406 4.578125 C 7.609375 4.578125 7.386719 5.015625 7.386719 5.46875 L 7.386719 6.535156 L 8.964844 6.535156 L 8.714844 8.179688 L 7.390625 8.179688 L 7.390625 12.152344 C 10.109375 11.726562 12.1875 9.375 12.1875 6.535156 Z M 12.1875 6.535156 "/>
</g>
</svg>
