<?xml version="1.0" encoding="UTF-8"?>
<svg xmlns="http://www.w3.org/2000/svg" xmlns:xlink="http://www.w3.org/1999/xlink" width="35px" height="35px" viewBox="0 0 35 35" version="1.1">
<g id="surface1">
<path style=" stroke:none;fill-rule:evenodd;fill:rgb(0%,0%,0%);fill-opacity:1;" d="M 32.8125 17.597656 C 32.8125 9.136719 25.953125 2.285156 17.5 2.285156 C 9.046875 2.285156 2.1875 9.136719 2.1875 17.597656 C 2.1875 25.230469 7.78125 31.570312 15.101562 32.714844 L 15.101562 22.023438 L 11.222656 22.023438 L 11.222656 17.597656 L 15.101562 17.597656 L 15.101562 14.21875 C 15.101562 10.378906 17.394531 8.253906 20.886719 8.253906 C 22.570312 8.253906 24.3125 8.5625 24.3125 8.5625 L 24.3125 12.328125 L 22.390625 12.328125 C 20.484375 12.328125 19.886719 13.503906 19.886719 14.722656 L 19.886719 17.597656 L 24.136719 17.597656 L 23.464844 22.023438 L 19.898438 22.023438 L 19.898438 32.714844 C 27.21875 31.570312 32.8125 25.242188 32.8125 17.597656 Z M 32.8125 17.597656 "/>
</g>
</svg>
