<?xml version="1.0" encoding="UTF-8"?>
<svg xmlns="http://www.w3.org/2000/svg" xmlns:xlink="http://www.w3.org/1999/xlink" width="35px" height="35px" viewBox="0 0 35 35" version="1.1">
<g id="surface1">
<path style=" stroke:none;fill-rule:nonzero;fill:rgb(0%,0%,0%);fill-opacity:1;" d="M 30.363281 2.1875 L 4.804688 2.1875 C 3.40625 2.1875 2.1875 3.191406 2.1875 4.574219 L 2.1875 30.1875 C 2.1875 31.574219 3.40625 32.8125 4.804688 32.8125 L 30.355469 32.8125 C 31.757812 32.8125 32.8125 31.566406 32.8125 30.1875 L 32.8125 4.574219 C 32.820312 3.191406 31.757812 2.1875 30.363281 2.1875 Z M 11.679688 27.714844 L 7.292969 27.714844 L 7.292969 14.074219 L 11.679688 14.074219 Z M 9.640625 12 L 9.605469 12 C 8.203125 12 7.292969 10.953125 7.292969 9.644531 C 7.292969 8.3125 8.226562 7.292969 9.664062 7.292969 C 11.097656 7.292969 11.976562 8.304688 12.007812 9.644531 C 12.007812 10.953125 11.097656 12 9.640625 12 Z M 27.714844 27.714844 L 23.328125 27.714844 L 23.328125 20.257812 C 23.328125 18.46875 22.6875 17.25 21.101562 17.25 C 19.890625 17.25 19.171875 18.070312 18.851562 18.867188 C 18.734375 19.15625 18.699219 19.546875 18.699219 19.945312 L 18.699219 27.714844 L 14.3125 27.714844 L 14.3125 14.074219 L 18.699219 14.074219 L 18.699219 15.972656 C 19.339844 15.0625 20.335938 13.753906 22.65625 13.753906 C 25.535156 13.753906 27.714844 15.652344 27.714844 19.746094 Z M 27.714844 27.714844 "/>
</g>
</svg>
